# Dracarys STEP 5.10R3 authored head asset
mtllib dracarys_head.mtl
o dracarys_head
g skull
v -5.067360 -1.024000 -6.000000
vt 0.035000 0.945000
v -5.508000 0.128000 -6.000000
vt 0.113125 0.945000
v -4.860000 2.000000 -6.000000
vt 0.191250 0.945000
v -2.970000 3.368000 -6.000000
vt 0.269375 0.945000
v 0.000000 3.800000 -6.000000
vt 0.347500 0.945000
v 2.970000 3.368000 -6.000000
vt 0.425625 0.945000
v 4.860000 2.000000 -6.000000
vt 0.503750 0.945000
v 5.508000 0.128000 -6.000000
vt 0.581875 0.945000
v 5.067360 -1.024000 -6.000000
vt 0.660000 0.945000
v -7.153920 -1.180000 -3.000000
vt 0.035000 0.871111
v -7.776000 0.260000 -3.000000
vt 0.113125 0.871111
v -6.480000 2.600000 -3.000000
vt 0.191250 0.871111
v -3.960000 4.310000 -3.000000
vt 0.269375 0.871111
v 0.000000 4.850000 -3.000000
vt 0.347500 0.871111
v 3.960000 4.310000 -3.000000
vt 0.425625 0.871111
v 6.480000 2.600000 -3.000000
vt 0.503750 0.871111
v 7.776000 0.260000 -3.000000
vt 0.581875 0.871111
v 7.153920 -1.180000 -3.000000
vt 0.660000 0.871111
v -8.449280 -1.314000 -0.000000
vt 0.035000 0.797222
v -9.184000 0.318000 -0.000000
vt 0.113125 0.797222
v -7.380000 2.970000 -0.000000
vt 0.191250 0.797222
v -4.510000 4.908000 -0.000000
vt 0.269375 0.797222
v 0.000000 5.520000 -0.000000
vt 0.347500 0.797222
v 4.510000 4.908000 -0.000000
vt 0.425625 0.797222
v 7.380000 2.970000 -0.000000
vt 0.503750 0.797222
v 9.184000 0.318000 -0.000000
vt 0.581875 0.797222
v 8.449280 -1.314000 -0.000000
vt 0.660000 0.797222
v -9.284640 -1.435000 3.500000
vt 0.035000 0.723333
v -10.092000 0.245000 3.500000
vt 0.113125 0.723333
v -7.830000 2.975000 3.500000
vt 0.191250 0.723333
v -4.785000 4.970000 3.500000
vt 0.269375 0.723333
v 0.000000 5.600000 3.500000
vt 0.347500 0.723333
v 4.785000 4.970000 3.500000
vt 0.425625 0.723333
v 7.830000 2.975000 3.500000
vt 0.503750 0.723333
v 10.092000 0.245000 3.500000
vt 0.581875 0.723333
v 9.284640 -1.435000 3.500000
vt 0.660000 0.723333
v -7.900960 -1.498000 7.000000
vt 0.035000 0.649444
v -8.588000 0.006000 7.000000
vt 0.113125 0.649444
v -6.840000 2.450000 7.000000
vt 0.191250 0.649444
v -4.180000 4.236000 7.000000
vt 0.269375 0.649444
v 0.000000 4.800000 7.000000
vt 0.347500 0.649444
v 4.180000 4.236000 7.000000
vt 0.425625 0.649444
v 6.840000 2.450000 7.000000
vt 0.503750 0.649444
v 8.588000 0.006000 7.000000
vt 0.581875 0.649444
v 7.900960 -1.498000 7.000000
vt 0.660000 0.649444
v -6.359040 -1.426000 9.800000
vt 0.035000 0.575556
v -6.912000 -0.178000 9.800000
vt 0.113125 0.575556
v -5.760000 1.850000 9.800000
vt 0.191250 0.575556
v -3.520000 3.332000 9.800000
vt 0.269375 0.575556
v 0.000000 3.800000 9.800000
vt 0.347500 0.575556
v 3.520000 3.332000 9.800000
vt 0.425625 0.575556
v 5.760000 1.850000 9.800000
vt 0.503750 0.575556
v 6.912000 -0.178000 9.800000
vt 0.581875 0.575556
v 6.359040 -1.426000 9.800000
vt 0.660000 0.575556
v -5.071040 -1.338000 12.300000
vt 0.035000 0.501667
v -5.512000 -0.314000 12.300000
vt 0.113125 0.501667
v -4.770000 1.350000 12.300000
vt 0.191250 0.501667
v -2.915000 2.566000 12.300000
vt 0.269375 0.501667
v 0.000000 2.950000 12.300000
vt 0.347500 0.501667
v 2.915000 2.566000 12.300000
vt 0.425625 0.501667
v 4.770000 1.350000 12.300000
vt 0.503750 0.501667
v 5.512000 -0.314000 12.300000
vt 0.581875 0.501667
v 5.071040 -1.338000 12.300000
vt 0.660000 0.501667
v -3.910000 -1.267000 14.700000
vt 0.035000 0.427778
v -4.250000 -0.451000 14.700000
vt 0.113125 0.427778
v -3.825000 0.875000 14.700000
vt 0.191250 0.427778
v -2.337500 1.844000 14.700000
vt 0.269375 0.427778
v 0.000000 2.150000 14.700000
vt 0.347500 0.427778
v 2.337500 1.844000 14.700000
vt 0.425625 0.427778
v 3.825000 0.875000 14.700000
vt 0.503750 0.427778
v 4.250000 -0.451000 14.700000
vt 0.581875 0.427778
v 3.910000 -1.267000 14.700000
vt 0.660000 0.427778
v -2.944000 -1.213000 16.800000
vt 0.035000 0.353889
v -3.200000 -0.589000 16.800000
vt 0.113125 0.353889
v -2.880000 0.425000 16.800000
vt 0.191250 0.353889
v -1.760000 1.166000 16.800000
vt 0.269375 0.353889
v 0.000000 1.400000 16.800000
vt 0.347500 0.353889
v 1.760000 1.166000 16.800000
vt 0.425625 0.353889
v 2.880000 0.425000 16.800000
vt 0.503750 0.353889
v 3.200000 -0.589000 16.800000
vt 0.581875 0.353889
v 2.944000 -1.213000 16.800000
vt 0.660000 0.353889
v -1.978000 -1.139000 18.500000
vt 0.035000 0.280000
v -2.150000 -0.707000 18.500000
vt 0.113125 0.280000
v -1.935000 -0.005000 18.500000
vt 0.191250 0.280000
v -1.182500 0.508000 18.500000
vt 0.269375 0.280000
v 0.000000 0.670000 18.500000
vt 0.347500 0.280000
v 1.182500 0.508000 18.500000
vt 0.425625 0.280000
v 1.935000 -0.005000 18.500000
vt 0.503750 0.280000
v 2.150000 -0.707000 18.500000
vt 0.581875 0.280000
v 1.978000 -1.139000 18.500000
vt 0.660000 0.280000
v 0.000000 0.120000 -6.350000
vt 0.340000 0.930000
v 0.000000 -0.720000 18.850000
vt 0.340000 0.280000
v -1.250000 4.150000 10.400000
vt 0.200000 0.850000
v 1.250000 4.150000 10.400000
vt 0.200000 0.850000
v 0.975000 5.120000 8.800000
vt 0.200000 0.850000
v -0.975000 5.120000 8.800000
vt 0.200000 0.850000
v 0.687500 4.150000 7.300000
vt 0.200000 0.850000
v -0.687500 4.150000 7.300000
vt 0.200000 0.850000
v -1.550000 4.750000 7.600000
vt 0.230000 0.830000
v 1.550000 4.750000 7.600000
vt 0.230000 0.830000
v 1.209000 5.920000 6.000000
vt 0.230000 0.830000
v -1.209000 5.920000 6.000000
vt 0.230000 0.830000
v 0.852500 4.750000 4.500000
vt 0.230000 0.830000
v -0.852500 4.750000 4.500000
vt 0.230000 0.830000
v -1.950000 5.000000 4.600000
vt 0.260000 0.810000
v 1.950000 5.000000 4.600000
vt 0.260000 0.810000
v 1.521000 6.430000 3.000000
vt 0.260000 0.810000
v -1.521000 6.430000 3.000000
vt 0.260000 0.810000
v 1.072500 5.000000 1.500000
vt 0.260000 0.810000
v -1.072500 5.000000 1.500000
vt 0.260000 0.810000
v -2.200000 5.000000 1.600000
vt 0.290000 0.790000
v 2.200000 5.000000 1.600000
vt 0.290000 0.790000
v 1.716000 6.600000 -0.000000
vt 0.290000 0.790000
v -1.716000 6.600000 -0.000000
vt 0.290000 0.790000
v 1.210000 5.000000 -1.500000
vt 0.290000 0.790000
v -1.210000 5.000000 -1.500000
vt 0.290000 0.790000
v -1.950000 5.000000 -1.200000
vt 0.320000 0.770000
v 1.950000 5.000000 -1.200000
vt 0.320000 0.770000
v 1.521000 6.470000 -2.800000
vt 0.320000 0.770000
v -1.521000 6.470000 -2.800000
vt 0.320000 0.770000
v 1.072500 5.000000 -4.300000
vt 0.320000 0.770000
v -1.072500 5.000000 -4.300000
vt 0.320000 0.770000
v -3.200000 4.350000 3.600000
vt 0.100000 0.660000
v -7.250000 3.550000 4.000000
vt 0.130000 0.660000
v -6.950000 2.450000 4.250000
vt 0.100000 0.630000
v -3.300000 2.950000 3.900000
vt 0.130000 0.630000
v -2.550000 3.550000 9.000000
vt 0.140000 0.660000
v -5.350000 3.050000 9.250000
vt 0.170000 0.660000
v -4.900000 2.050000 9.300000
vt 0.140000 0.630000
v -2.400000 2.550000 9.050000
vt 0.170000 0.630000
v -6.150000 0.450000 1.200000
vt 0.180000 0.600000
v -8.350000 -0.450000 2.000000
vt 0.210000 0.600000
v -7.550000 -2.350000 2.800000
vt 0.180000 0.570000
v -5.350000 -1.450000 1.600000
vt 0.210000 0.570000
v -4.650000 -0.050000 9.200000
vt 0.220000 0.600000
v -6.100000 -0.650000 9.550000
vt 0.250000 0.600000
v -5.450000 -2.050000 9.700000
vt 0.220000 0.570000
v -3.850000 -1.300000 9.250000
vt 0.250000 0.570000
v 3.200000 4.350000 3.600000
vt 0.100000 0.660000
v 7.250000 3.550000 4.000000
vt 0.130000 0.660000
v 6.950000 2.450000 4.250000
vt 0.100000 0.630000
v 3.300000 2.950000 3.900000
vt 0.130000 0.630000
v 2.550000 3.550000 9.000000
vt 0.140000 0.660000
v 5.350000 3.050000 9.250000
vt 0.170000 0.660000
v 4.900000 2.050000 9.300000
vt 0.140000 0.630000
v 2.400000 2.550000 9.050000
vt 0.170000 0.630000
v 6.150000 0.450000 1.200000
vt 0.180000 0.600000
v 8.350000 -0.450000 2.000000
vt 0.210000 0.600000
v 7.550000 -2.350000 2.800000
vt 0.180000 0.570000
v 5.350000 -1.450000 1.600000
vt 0.210000 0.570000
v 4.650000 -0.050000 9.200000
vt 0.220000 0.600000
v 6.100000 -0.650000 9.550000
vt 0.250000 0.600000
v 5.450000 -2.050000 9.700000
vt 0.220000 0.570000
v 3.850000 -1.300000 9.250000
vt 0.250000 0.570000
v -6.620000 1.030000 7.480000
vt 0.842000 0.950000
v -6.620000 1.030000 6.120000
vt 0.900000 0.950000
v -6.620000 2.230000 6.050000
vt 0.900000 0.892000
v -6.620000 2.230000 7.550000
vt 0.842000 0.892000
v 6.620000 2.230000 7.550000
vt 0.842000 0.950000
v 6.620000 2.230000 6.050000
vt 0.900000 0.950000
v 6.620000 1.030000 6.120000
vt 0.900000 0.892000
v 6.620000 1.030000 7.480000
vt 0.842000 0.892000
v -1.750000 -0.120000 17.710000
vt 0.842000 0.855000
v -1.750000 -0.120000 17.030000
vt 0.900000 0.855000
v -1.750000 0.280000 17.010000
vt 0.900000 0.805000
v -1.750000 0.280000 17.730000
vt 0.842000 0.805000
v 1.750000 0.280000 17.730000
vt 0.842000 0.855000
v 1.750000 0.280000 17.010000
vt 0.900000 0.855000
v 1.750000 -0.120000 17.030000
vt 0.900000 0.805000
v 1.750000 -0.120000 17.710000
vt 0.842000 0.805000
v -6.594764 4.150000 -0.551309
vt 0.720000 0.950000
v -7.299991 6.100000 -5.475002
vt 0.720000 0.830000
v -5.790389 5.495649 -0.205733
vt 0.734286 0.950000
v -6.717363 7.074686 -5.224693
vt 0.734286 0.830000
v -4.240231 5.827996 -0.458256
vt 0.748571 0.950000
v -5.594546 7.315414 -5.407602
vt 0.748571 0.830000
v -3.111591 4.896779 -1.118724
vt 0.762857 0.950000
v -4.777044 6.640910 -5.885994
vt 0.762857 0.830000
v -3.254357 3.403221 -1.689790
vt 0.777143 0.950000
v -4.880453 5.559090 -6.299631
vt 0.777143 0.830000
v -4.561024 2.472004 -1.741430
vt 0.791429 0.950000
v -5.826904 4.884586 -6.337036
vt 0.791429 0.830000
v -6.047645 2.804351 -1.234759
vt 0.805714 0.950000
v -6.903700 5.125314 -5.970041
vt 0.805714 0.830000
v -7.281308 6.100000 -5.407763
vt 0.720000 0.830000
v -8.245836 7.350000 -10.471683
vt 0.720000 0.710000
v -6.726209 7.117811 -5.318045
vt 0.734286 0.830000
v -7.922719 7.942457 -10.419459
vt 0.734286 0.710000
v -5.624260 7.369190 -5.591249
vt 0.748571 0.830000
v -7.281286 8.088782 -10.578488
vt 0.748571 0.710000
v -4.805251 6.664843 -6.021647
vt 0.762857 0.830000
v -6.804549 7.678789 -10.829018
vt 0.762857 0.710000
v -4.885912 5.535157 -6.285140
vt 0.777143 0.830000
v -6.851501 7.021211 -10.982395
vt 0.777143 0.710000
v -5.805504 4.830810 -6.183312
vt 0.791429 0.830000
v -7.386786 6.611218 -10.923122
vt 0.791429 0.710000
v -6.871556 5.082189 -5.792843
vt 0.805714 0.830000
v -8.007323 6.757543 -10.695834
vt 0.805714 0.710000
v -8.257691 7.350000 -10.514787
vt 0.720000 0.710000
v -8.735996 7.850000 -15.166757
vt 0.720000 0.590000
v -7.956874 7.956307 -10.520952
vt 0.734286 0.710000
v -8.682003 7.958824 -15.167863
vt 0.734286 0.590000
v -7.312021 8.106053 -10.661945
vt 0.748571 0.710000
v -8.566260 7.985702 -15.193170
vt 0.748571 0.590000
v -6.808720 7.686475 -10.831593
vt 0.762857 0.710000
v -8.475924 7.910393 -15.223619
vt 0.762857 0.590000
v -6.825967 7.013525 -10.902150
vt 0.777143 0.710000
v -8.479020 7.789607 -15.236283
vt 0.777143 0.590000
v -7.350775 6.593947 -10.820483
vt 0.791429 0.710000
v -8.573216 7.714298 -15.221625
vt 0.791429 0.590000
v -7.987952 6.743693 -10.648090
vt 0.805714 0.710000
v -8.687581 7.741176 -15.190683
vt 0.805714 0.590000
v -6.567565 3.250000 1.394886
vt 0.720000 0.950000
v -7.234880 4.750000 -2.477877
vt 0.720000 0.830000
v -5.998056 4.183722 1.588716
vt 0.734286 0.950000
v -6.914531 5.275219 -2.368847
vt 0.734286 0.830000
v -4.940547 4.414333 1.339231
vt 0.748571 0.950000
v -6.319683 5.404937 -2.509183
vt 0.748571 0.830000
v -4.191365 3.768177 0.834298
vt 0.762857 0.950000
v -5.898268 5.041474 -2.793207
vt 0.762857 0.830000
v -4.314659 2.731823 0.454142
vt 0.777143 0.950000
v -5.967620 4.458526 -3.007045
vt 0.777143 0.830000
v -5.217586 2.085667 0.485028
vt 0.791429 0.950000
v -6.475517 4.095063 -2.989672
vt 0.791429 0.830000
v -6.220223 2.316278 0.903699
vt 0.805714 0.950000
v -7.039501 4.224781 -2.754170
vt 0.805714 0.830000
v -7.252439 4.750000 -2.541951
vt 0.720000 0.830000
v -7.567073 5.350000 -6.673659
vt 0.720000 0.710000
v -6.970071 5.306986 -2.521936
vt 0.734286 0.830000
v -7.520012 5.442831 -6.670323
vt 0.734286 0.710000
v -6.371381 5.444550 -2.636007
vt 0.748571 0.830000
v -7.420230 5.465758 -6.689334
vt 0.748571 0.710000
v -5.907195 5.059104 -2.798266
vt 0.762857 0.830000
v -7.342866 5.401517 -6.716378
vt 0.762857 0.710000
v -5.927054 4.440896 -2.886528
vt 0.777143 0.830000
v -7.346176 5.298483 -6.731088
vt 0.777143 0.710000
v -6.416004 4.055450 -2.834332
vt 0.791429 0.830000
v -7.427667 5.234242 -6.722389
vt 0.791429 0.710000
v -7.005856 4.193014 -2.680980
vt 0.805714 0.830000
v -7.525976 5.257169 -6.696830
vt 0.805714 0.710000
v -7.379831 1.650000 4.092882
vt 0.720000 0.950000
v -8.183776 2.300000 0.553097
vt 0.720000 0.830000
v -7.026766 2.327097 4.097715
vt 0.734286 0.950000
v -7.999218 2.653937 0.555624
vt 0.734286 0.830000
v -6.314686 2.494326 3.878363
vt 0.748571 0.950000
v -7.626995 2.741352 0.440963
vt 0.748571 0.830000
v -5.779802 2.025760 3.600002
vt 0.762857 0.950000
v -7.347397 2.496420 0.295456
vt 0.762857 0.830000
v -5.824893 1.274240 3.472243
vt 0.777143 0.950000
v -7.370967 2.103580 0.228673
vt 0.777143 0.830000
v -6.416005 0.805674 3.591292
vt 0.791429 0.950000
v -7.679957 1.858648 0.290903
vt 0.791429 0.830000
v -7.108017 0.972903 3.867502
vt 0.805714 0.950000
v -8.041691 1.946063 0.435285
vt 0.805714 0.830000
v -8.201543 2.300000 0.487800
vt 0.720000 0.830000
v -8.548162 2.550000 -3.180913
vt 0.720000 0.710000
v -8.026864 2.658810 0.478752
vt 0.734286 0.830000
v -8.510188 2.628002 -3.182880
vt 0.734286 0.710000
v -7.643701 2.747428 0.410402
vt 0.748571 0.830000
v -8.426891 2.647267 -3.197739
vt 0.748571 0.710000
v -7.340583 2.499124 0.334219
vt 0.762857 0.830000
v -8.360996 2.593288 -3.214300
vt 0.762857 0.710000
v -7.345765 2.100876 0.307571
vt 0.777143 0.830000
v -8.362123 2.506712 -3.220093
vt 0.777143 0.710000
v -7.655344 1.852572 0.350523
vt 0.791429 0.830000
v -8.429423 2.452733 -3.210756
vt 0.791429 0.710000
v -8.036201 1.941190 0.430733
vt 0.805714 0.830000
v -8.512218 2.471998 -3.193319
vt 0.805714 0.710000
v 3.005236 4.150000 -1.448691
vt 0.720000 0.950000
v 4.700009 6.100000 -6.124998
vt 0.720000 0.830000
v 3.552355 5.495649 -0.765241
vt 0.734286 0.950000
v 5.096300 7.074686 -5.629959
vt 0.734286 0.830000
v 5.038976 5.827996 -0.258570
vt 0.748571 0.950000
v 6.173096 7.315414 -5.262964
vt 0.748571 0.830000
v 6.345643 4.896779 -0.310210
vt 0.762857 0.950000
v 7.119547 6.640910 -5.300369
vt 0.762857 0.830000
v 6.488409 3.403221 -0.881276
vt 0.777143 0.950000
v 7.222956 5.559090 -5.714006
vt 0.777143 0.830000
v 5.359769 2.472004 -1.541744
vt 0.791429 0.950000
v 6.405454 4.884586 -6.192398
vt 0.791429 0.830000
v 3.809611 2.804351 -1.794267
vt 0.805714 0.950000
v 5.282637 5.125314 -6.375307
vt 0.805714 0.830000
v 4.718692 6.100000 -6.192237
vt 0.720000 0.830000
v 6.754164 7.350000 -10.928317
vt 0.720000 0.710000
v 5.128444 7.117811 -5.807157
vt 0.734286 0.830000
v 6.992677 7.942457 -10.704166
vt 0.734286 0.710000
v 6.194496 7.369190 -5.416688
vt 0.748571 0.830000
v 7.613214 8.088782 -10.476878
vt 0.748571 0.710000
v 7.114088 6.664843 -5.314860
vt 0.762857 0.830000
v 8.148499 7.678789 -10.417605
vt 0.762857 0.710000
v 7.194749 5.535157 -5.578353
vt 0.777143 0.830000
v 8.195451 7.021211 -10.570982
vt 0.777143 0.710000
v 6.375740 4.830810 -6.008751
vt 0.791429 0.830000
v 7.718714 6.611218 -10.821512
vt 0.791429 0.710000
v 5.273791 5.082189 -6.281955
vt 0.805714 0.830000
v 7.077281 6.757543 -10.980541
vt 0.805714 0.710000
v 6.742309 7.350000 -10.885213
vt 0.720000 0.710000
v 8.464004 7.850000 -15.233243
vt 0.720000 0.590000
v 7.012048 7.956307 -10.751910
vt 0.734286 0.710000
v 8.512419 7.958824 -15.209317
vt 0.734286 0.590000
v 7.649225 8.106053 -10.579517
vt 0.748571 0.710000
v 8.626784 7.985702 -15.178375
vt 0.748571 0.590000
v 8.174033 7.686475 -10.497850
vt 0.762857 0.710000
v 8.720980 7.910393 -15.163717
vt 0.762857 0.590000
v 8.191280 7.013525 -10.568407
vt 0.777143 0.710000
v 8.724076 7.789607 -15.176381
vt 0.777143 0.590000
v 7.687979 6.593947 -10.738055
vt 0.791429 0.710000
v 8.633740 7.714298 -15.206830
vt 0.791429 0.590000
v 7.043126 6.743693 -10.879048
vt 0.805714 0.710000
v 8.517997 7.741176 -15.232137
vt 0.805714 0.590000
v 4.132435 3.250000 0.605114
vt 0.720000 0.950000
v 5.865120 4.750000 -2.922123
vt 0.720000 0.830000
v 4.479777 4.183722 1.096301
vt 0.734286 0.950000
v 6.060499 5.275219 -2.645830
vt 0.734286 0.830000
v 5.482414 4.414333 1.514972
vt 0.748571 0.950000
v 6.624483 5.404937 -2.410328
vt 0.748571 0.830000
v 6.385341 3.768177 1.545858
vt 0.762857 0.950000
v 7.132380 5.041474 -2.392955
vt 0.762857 0.830000
v 6.508635 2.731823 1.165702
vt 0.777143 0.950000
v 7.201732 4.458526 -2.606793
vt 0.777143 0.830000
v 5.759453 2.085667 0.660769
vt 0.791429 0.950000
v 6.780317 4.095063 -2.890817
vt 0.791429 0.830000
v 4.701944 2.316278 0.411284
vt 0.805714 0.950000
v 6.185469 4.224781 -3.031153
vt 0.805714 0.830000
v 5.847561 4.750000 -2.858049
vt 0.720000 0.830000
v 7.332927 5.350000 -6.726341
vt 0.720000 0.710000
v 6.094144 5.306986 -2.719020
vt 0.734286 0.830000
v 7.374024 5.442831 -6.703170
vt 0.734286 0.710000
v 6.683996 5.444550 -2.565668
vt 0.748571 0.830000
v 7.472333 5.465758 -6.677611
vt 0.748571 0.710000
v 7.172946 5.059104 -2.513472
vt 0.762857 0.830000
v 7.553824 5.401517 -6.668912
vt 0.762857 0.710000
v 7.192805 4.440896 -2.601734
vt 0.777143 0.830000
v 7.557134 5.298483 -6.683622
vt 0.777143 0.710000
v 6.728619 4.055450 -2.763993
vt 0.791429 0.830000
v 7.479770 5.234242 -6.710666
vt 0.791429 0.710000
v 6.129929 4.193014 -2.878064
vt 0.805714 0.830000
v 7.379988 5.257169 -6.729677
vt 0.805714 0.710000
v 5.720169 1.650000 3.507118
vt 0.720000 0.950000
v 7.316224 2.300000 0.246903
vt 0.720000 0.830000
v 5.991983 2.327097 3.732498
vt 0.734286 0.950000
v 7.458309 2.653937 0.364715
vt 0.734286 0.830000
v 6.683995 2.494326 4.008708
vt 0.748571 0.950000
v 7.820043 2.741352 0.509097
vt 0.748571 0.830000
v 7.275107 2.025760 4.127757
vt 0.762857 0.950000
v 8.129033 2.496420 0.571327
vt 0.762857 0.830000
v 7.320198 1.274240 3.999998
vt 0.777143 0.950000
v 8.152603 2.103580 0.504544
vt 0.777143 0.830000
v 6.785314 0.805674 3.721637
vt 0.791429 0.950000
v 7.873005 1.858648 0.359037
vt 0.791429 0.830000
v 6.073234 0.972903 3.502285
vt 0.805714 0.950000
v 7.500782 1.946063 0.244376
vt 0.805714 0.830000
v 7.298457 2.300000 0.312200
vt 0.720000 0.830000
v 8.351838 2.550000 -3.219087
vt 0.720000 0.710000
v 7.463799 2.658810 0.369267
vt 0.734286 0.830000
v 8.387782 2.628002 -3.206681
vt 0.734286 0.710000
v 7.844656 2.747428 0.449477
vt 0.748571 0.830000
v 8.470577 2.647267 -3.189244
vt 0.748571 0.710000
v 8.154235 2.499124 0.492429
vt 0.762857 0.830000
v 8.537877 2.593288 -3.179907
vt 0.762857 0.710000
v 8.159417 2.100876 0.465781
vt 0.777143 0.830000
v 8.539004 2.506712 -3.185700
vt 0.777143 0.710000
v 7.856299 1.852572 0.389598
vt 0.791429 0.830000
v 8.473109 2.452733 -3.202261
vt 0.791429 0.710000
v 7.473136 1.941190 0.321248
vt 0.805714 0.830000
v 8.389812 2.471998 -3.217120
vt 0.805714 0.710000
v 0.000000 4.684047 -2.843578
vt 0.720000 0.700000
v 0.000000 9.291165 -2.379511
vt 0.720000 0.420000
v -0.909327 4.742023 -2.321789
vt 0.736667 0.700000
v -0.069282 9.295583 -2.339755
vt 0.736667 0.420000
v -0.909327 4.857977 -1.278211
vt 0.753333 0.700000
v -0.069282 9.304417 -2.260245
vt 0.753333 0.420000
v -0.000000 4.915953 -0.756422
vt 0.770000 0.700000
v -0.000000 9.308835 -2.220489
vt 0.770000 0.420000
v 0.909327 4.857977 -1.278211
vt 0.786667 0.700000
v 0.069282 9.304417 -2.260245
vt 0.786667 0.420000
v 0.909327 4.742023 -2.321789
vt 0.803333 0.700000
v 0.069282 9.295583 -2.339755
vt 0.803333 0.420000
v 0.000000 4.898486 0.005166
vt 0.720000 0.700000
v 0.000000 9.891879 0.420413
vt 0.720000 0.420000
v -0.866025 4.949243 0.502583
vt 0.736667 0.700000
v -0.069282 9.895939 0.460207
vt 0.736667 0.420000
v -0.866025 5.050757 1.497417
vt 0.753333 0.700000
v -0.069282 9.904061 0.539793
vt 0.753333 0.420000
v -0.000000 5.101514 1.994834
vt 0.770000 0.700000
v -0.000000 9.908121 0.579587
vt 0.770000 0.420000
v 0.866025 5.050757 1.497417
vt 0.786667 0.700000
v 0.069282 9.904061 0.539793
vt 0.786667 0.420000
v 0.866025 4.949243 0.502583
vt 0.803333 0.700000
v 0.069282 9.895939 0.460207
vt 0.803333 0.420000
v 0.000000 4.593608 2.906311
vt 0.720000 0.700000
v 0.000000 8.890543 3.220561
vt 0.720000 0.420000
v -0.779423 4.646804 3.353155
vt 0.736667 0.700000
v -0.069282 8.895271 3.260280
vt 0.736667 0.420000
v -0.779423 4.753196 4.246845
vt 0.753333 0.700000
v -0.069282 8.904729 3.339720
vt 0.753333 0.420000
v -0.000000 4.806392 4.693689
vt 0.770000 0.700000
v -0.000000 8.909457 3.379439
vt 0.770000 0.420000
v 0.779423 4.753196 4.246845
vt 0.786667 0.700000
v 0.069282 8.904729 3.339720
vt 0.786667 0.420000
v 0.779423 4.646804 3.353155
vt 0.803333 0.700000
v 0.069282 8.895271 3.260280
vt 0.803333 0.420000
v -2.400000 4.686863 -1.591960
vt 0.720000 0.700000
v -2.472000 8.288686 -1.379196
vt 0.720000 0.420000
v -3.092677 4.729467 -1.193985
vt 0.736667 0.700000
v -2.541268 8.292947 -1.339398
vt 0.736667 0.420000
v -3.092677 4.842604 -0.402025
vt 0.753333 0.700000
v -2.541268 8.304260 -1.260203
vt 0.753333 0.420000
v -2.400000 4.913137 -0.008040
vt 0.770000 0.700000
v -2.472000 8.311314 -1.220804
vt 0.770000 0.420000
v -1.707323 4.870533 -0.406015
vt 0.786667 0.700000
v -2.402732 8.307053 -1.260602
vt 0.786667 0.420000
v -1.707323 4.757396 -1.197975
vt 0.803333 0.700000
v -2.402732 8.295740 -1.339797
vt 0.803333 0.420000
v 2.400000 4.686863 -1.591960
vt 0.720000 0.700000
v 2.472000 8.288686 -1.379196
vt 0.720000 0.420000
v 1.707323 4.757396 -1.197975
vt 0.736667 0.700000
v 2.402732 8.295740 -1.339797
vt 0.736667 0.420000
v 1.707323 4.870533 -0.406015
vt 0.753333 0.700000
v 2.402732 8.307053 -1.260602
vt 0.753333 0.420000
v 2.400000 4.913137 -0.008040
vt 0.770000 0.700000
v 2.472000 8.311314 -1.220804
vt 0.770000 0.420000
v 3.092677 4.842604 -0.402025
vt 0.786667 0.700000
v 2.541268 8.304260 -1.260203
vt 0.786667 0.420000
v 3.092677 4.729467 -1.193985
vt 0.803333 0.700000
v 2.541268 8.292947 -1.339398
vt 0.803333 0.420000
v -3.400000 4.584921 1.309524
vt 0.720000 0.700000
v -3.502000 7.686848 1.421088
vt 0.720000 0.420000
v -4.005877 4.622417 1.658103
vt 0.736667 0.700000
v -3.571243 7.691133 1.460926
vt 0.736667 0.420000
v -4.005877 4.737497 2.348578
vt 0.753333 0.700000
v -3.571243 7.704285 1.539838
vt 0.753333 0.420000
v -3.400000 4.815079 2.690476
vt 0.770000 0.700000
v -3.502000 7.713152 1.578912
vt 0.770000 0.420000
v -2.794123 4.777583 2.341897
vt 0.786667 0.700000
v -3.432757 7.708867 1.539074
vt 0.786667 0.420000
v -2.794123 4.662503 1.651422
vt 0.803333 0.700000
v -3.432757 7.695715 1.460162
vt 0.803333 0.420000
v 3.400000 4.584921 1.309524
vt 0.720000 0.700000
v 3.502000 7.686848 1.421088
vt 0.720000 0.420000
v 2.794123 4.662503 1.651422
vt 0.736667 0.700000
v 3.432757 7.695715 1.460162
vt 0.736667 0.420000
v 2.794123 4.777583 2.341897
vt 0.753333 0.700000
v 3.432757 7.708867 1.539074
vt 0.753333 0.420000
v 3.400000 4.815079 2.690476
vt 0.770000 0.700000
v 3.502000 7.713152 1.578912
vt 0.770000 0.420000
v 4.005877 4.737497 2.348578
vt 0.786667 0.700000
v 3.571243 7.704285 1.539838
vt 0.786667 0.420000
v 4.005877 4.622417 1.658103
vt 0.803333 0.700000
v 3.571243 7.691133 1.460926
vt 0.803333 0.420000
v -6.229408 -0.500000 4.487964
vt 0.720000 0.600000
v -8.346244 -0.300000 1.852550
vt 0.720000 0.380000
v -5.989370 0.061904 4.266276
vt 0.736667 0.600000
v -8.320394 -0.239487 1.828676
vt 0.736667 0.380000
v -5.559962 0.061904 3.778312
vt 0.753333 0.600000
v -8.274150 -0.239487 1.776126
vt 0.753333 0.380000
v -5.370592 -0.500000 3.512036
vt 0.770000 0.600000
v -8.253756 -0.300000 1.747450
vt 0.770000 0.380000
v -5.610630 -1.061904 3.733724
vt 0.786667 0.600000
v -8.279606 -0.360513 1.771324
vt 0.786667 0.380000
v -6.040038 -1.061904 4.221688
vt 0.803333 0.600000
v -8.325850 -0.360513 1.823874
vt 0.803333 0.380000
v -6.176558 -0.900000 7.427907
vt 0.720000 0.600000
v -8.346244 -0.700000 4.852550
vt 0.720000 0.380000
v -5.966063 -0.407253 7.233503
vt 0.736667 0.600000
v -8.320394 -0.639487 4.828676
vt 0.736667 0.380000
v -5.589505 -0.407253 6.805597
vt 0.753333 0.600000
v -8.274150 -0.639487 4.776126
vt 0.753333 0.380000
v -5.423442 -0.900000 6.572093
vt 0.770000 0.600000
v -8.253756 -0.700000 4.747450
vt 0.770000 0.380000
v -5.633937 -1.392747 6.766497
vt 0.786667 0.600000
v -8.279606 -0.760513 4.771324
vt 0.786667 0.380000
v -6.010495 -1.392747 7.194403
vt 0.803333 0.600000
v -8.325850 -0.760513 4.823874
vt 0.803333 0.380000
v -6.123708 -1.000000 10.167850
vt 0.720000 0.600000
v -8.346244 -0.800000 7.652550
vt 0.720000 0.380000
v -5.942756 -0.576411 10.000731
vt 0.736667 0.600000
v -8.320394 -0.739487 7.628676
vt 0.736667 0.380000
v -5.619048 -0.576411 9.632881
vt 0.753333 0.600000
v -8.274150 -0.739487 7.576126
vt 0.753333 0.380000
v -5.476292 -1.000000 9.432150
vt 0.770000 0.600000
v -8.253756 -0.800000 7.547450
vt 0.770000 0.380000
v -5.657244 -1.423589 9.599269
vt 0.786667 0.600000
v -8.279606 -0.860513 7.571324
vt 0.786667 0.380000
v -5.980952 -1.423589 9.967119
vt 0.803333 0.600000
v -8.325850 -0.860513 7.623874
vt 0.803333 0.380000
v 5.370592 -0.500000 3.512036
vt 0.720000 0.600000
v 8.253756 -0.300000 1.747450
vt 0.720000 0.380000
v 5.559962 0.061904 3.778312
vt 0.736667 0.600000
v 8.274150 -0.239487 1.776126
vt 0.736667 0.380000
v 5.989370 0.061904 4.266276
vt 0.753333 0.600000
v 8.320394 -0.239487 1.828676
vt 0.753333 0.380000
v 6.229408 -0.500000 4.487964
vt 0.770000 0.600000
v 8.346244 -0.300000 1.852550
vt 0.770000 0.380000
v 6.040038 -1.061904 4.221688
vt 0.786667 0.600000
v 8.325850 -0.360513 1.823874
vt 0.786667 0.380000
v 5.610630 -1.061904 3.733724
vt 0.803333 0.600000
v 8.279606 -0.360513 1.771324
vt 0.803333 0.380000
v 5.423442 -0.900000 6.572093
vt 0.720000 0.600000
v 8.253756 -0.700000 4.747450
vt 0.720000 0.380000
v 5.589505 -0.407253 6.805597
vt 0.736667 0.600000
v 8.274150 -0.639487 4.776126
vt 0.736667 0.380000
v 5.966063 -0.407253 7.233503
vt 0.753333 0.600000
v 8.320394 -0.639487 4.828676
vt 0.753333 0.380000
v 6.176558 -0.900000 7.427907
vt 0.770000 0.600000
v 8.346244 -0.700000 4.852550
vt 0.770000 0.380000
v 6.010495 -1.392747 7.194403
vt 0.786667 0.600000
v 8.325850 -0.760513 4.823874
vt 0.786667 0.380000
v 5.633937 -1.392747 6.766497
vt 0.803333 0.600000
v 8.279606 -0.760513 4.771324
vt 0.803333 0.380000
v 5.476292 -1.000000 9.432150
vt 0.720000 0.600000
v 8.253756 -0.800000 7.547450
vt 0.720000 0.380000
v 5.619048 -0.576411 9.632881
vt 0.736667 0.600000
v 8.274150 -0.739487 7.576126
vt 0.736667 0.380000
v 5.942756 -0.576411 10.000731
vt 0.753333 0.600000
v 8.320394 -0.739487 7.628676
vt 0.753333 0.380000
v 6.123708 -1.000000 10.167850
vt 0.770000 0.600000
v 8.346244 -0.800000 7.652550
vt 0.770000 0.380000
v 5.980952 -1.423589 9.967119
vt 0.786667 0.600000
v 8.325850 -0.860513 7.623874
vt 0.786667 0.380000
v 5.657244 -1.423589 9.599269
vt 0.803333 0.600000
v 8.279606 -0.860513 7.571324
vt 0.803333 0.380000
v -5.450000 -1.024295 7.018493
vt 0.915000 0.950000
v -5.368250 -2.065911 6.954760
vt 0.915000 0.860000
v -5.658573 -1.058545 6.869458
vt 0.924400 0.950000
v -5.401432 -2.071359 6.931050
vt 0.924400 0.860000
v -5.578905 -1.080986 6.624434
vt 0.933800 0.950000
v -5.388758 -2.074930 6.892069
vt 0.933800 0.860000
v -5.321095 -1.060606 6.622036
vt 0.943200 0.950000
v -5.347742 -2.071687 6.891688
vt 0.943200 0.860000
v -5.241427 -1.025568 6.865578
vt 0.952600 0.950000
v -5.335068 -2.066113 6.930433
vt 0.952600 0.860000
v 5.450000 -1.024295 7.018493
vt 0.915000 0.950000
v 5.368250 -2.065911 6.954760
vt 0.915000 0.860000
v 5.241427 -1.025568 6.865578
vt 0.924400 0.950000
v 5.335068 -2.066113 6.930433
vt 0.924400 0.860000
v 5.321095 -1.060606 6.622036
vt 0.933800 0.950000
v 5.347742 -2.071687 6.891688
vt 0.933800 0.860000
v 5.578905 -1.080986 6.624434
vt 0.943200 0.950000
v 5.388758 -2.074930 6.892069
vt 0.943200 0.860000
v 5.658573 -1.058545 6.869458
vt 0.952600 0.950000
v 5.401432 -2.071359 6.931050
vt 0.952600 0.860000
v -4.950000 -0.995692 9.298517
vt 0.915000 0.950000
v -4.875750 -1.995746 9.254741
vt 0.915000 0.860000
v -5.139676 -1.026647 9.163079
vt 0.924400 0.950000
v -4.908943 -2.001163 9.231039
vt 0.924400 0.860000
v -5.067226 -1.048416 8.940468
vt 0.933800 0.950000
v -4.896265 -2.004973 9.192082
vt 0.933800 0.860000
v -4.832774 -1.030915 8.938325
vt 0.943200 0.950000
v -4.855235 -2.001910 9.191707
vt 0.943200 0.860000
v -4.760324 -0.998330 9.159612
vt 0.952600 0.950000
v -4.842557 -1.996208 9.230432
vt 0.952600 0.860000
v 4.950000 -0.995692 9.298517
vt 0.915000 0.950000
v 4.875750 -1.995746 9.254741
vt 0.915000 0.860000
v 4.760324 -0.998330 9.159612
vt 0.924400 0.950000
v 4.842557 -1.996208 9.230432
vt 0.924400 0.860000
v 4.832774 -1.030915 8.938325
vt 0.933800 0.950000
v 4.855235 -2.001910 9.191707
vt 0.933800 0.860000
v 5.067226 -1.048416 8.940468
vt 0.943200 0.950000
v 4.896265 -2.004973 9.192082
vt 0.943200 0.860000
v 5.139676 -1.026647 9.163079
vt 0.952600 0.950000
v 4.908943 -2.001163 9.231039
vt 0.952600 0.860000
v -4.350000 -0.955940 11.488470
vt 0.915000 0.950000
v -4.284750 -1.915568 11.454718
vt 0.915000 0.860000
v -4.530274 -0.984878 11.359812
vt 0.924400 0.950000
v -4.317958 -1.920899 11.431018
vt 0.924400 0.860000
v -4.461415 -1.007075 11.148496
vt 0.933800 0.950000
v -4.305274 -1.924987 11.392091
vt 0.933800 0.860000
v -4.238585 -0.991855 11.146553
vt 0.943200 0.950000
v -4.264226 -1.922184 11.391733
vt 0.943200 0.860000
v -4.169726 -0.960252 11.356669
vt 0.952600 0.950000
v -4.251542 -1.916362 11.430439
vt 0.952600 0.860000
v 4.350000 -0.955940 11.488470
vt 0.915000 0.950000
v 4.284750 -1.915568 11.454718
vt 0.915000 0.860000
v 4.169726 -0.960252 11.356669
vt 0.924400 0.950000
v 4.251542 -1.916362 11.430439
vt 0.924400 0.860000
v 4.238585 -0.991855 11.146553
vt 0.933800 0.950000
v 4.264226 -1.922184 11.391733
vt 0.933800 0.860000
v 4.461415 -1.007075 11.148496
vt 0.943200 0.950000
v 4.305274 -1.924987 11.392091
vt 0.943200 0.860000
v 4.530274 -0.984878 11.359812
vt 0.952600 0.950000
v 4.317958 -1.920899 11.431018
vt 0.952600 0.860000
v -3.750000 -0.916211 13.578421
vt 0.915000 0.950000
v -3.693750 -1.835374 13.554693
vt 0.915000 0.860000
v -3.920863 -0.943141 13.456534
vt 0.924400 0.950000
v -3.726973 -1.840611 13.530993
vt 0.924400 0.860000
v -3.855599 -0.965731 13.256519
vt 0.933800 0.950000
v -3.714283 -1.845003 13.492101
vt 0.933800 0.860000
v -3.644401 -0.952761 13.254790
vt 0.943200 0.950000
v -3.673217 -1.842481 13.491765
vt 0.943200 0.860000
v -3.579137 -0.922156 13.453736
vt 0.952600 0.950000
v -3.660527 -1.836530 13.530449
vt 0.952600 0.860000
v 3.750000 -0.916211 13.578421
vt 0.915000 0.950000
v 3.693750 -1.835374 13.554693
vt 0.915000 0.860000
v 3.579137 -0.922156 13.453736
vt 0.924400 0.950000
v 3.660527 -1.836530 13.530449
vt 0.924400 0.860000
v 3.644401 -0.952761 13.254790
vt 0.933800 0.950000
v 3.673217 -1.842481 13.491765
vt 0.933800 0.860000
v 3.855599 -0.965731 13.256519
vt 0.943200 0.950000
v 3.714283 -1.845003 13.492101
vt 0.943200 0.860000
v 3.920863 -0.943141 13.456534
vt 0.952600 0.950000
v 3.726973 -1.840611 13.530993
vt 0.952600 0.860000
v -3.150000 -0.876507 15.468369
vt 0.915000 0.950000
v -3.102750 -1.755163 15.454664
vt 0.915000 0.860000
v -3.311441 -0.901441 15.353243
vt 0.924400 0.950000
v -3.135988 -1.760297 15.430962
vt 0.924400 0.860000
v -3.249776 -0.924384 15.164537
vt 0.933800 0.950000
v -3.123292 -1.765020 15.392111
vt 0.933800 0.860000
v -3.050224 -0.913629 15.163036
vt 0.943200 0.950000
v -3.082208 -1.762806 15.391802
vt 0.943200 0.860000
v -2.988559 -0.884040 15.350815
vt 0.952600 0.950000
v -3.069512 -1.756714 15.430462
vt 0.952600 0.860000
v 3.150000 -0.876507 15.468369
vt 0.915000 0.950000
v 3.102750 -1.755163 15.454664
vt 0.915000 0.860000
v 2.988559 -0.884040 15.350815
vt 0.924400 0.950000
v 3.069512 -1.756714 15.430462
vt 0.924400 0.860000
v 3.050224 -0.913629 15.163036
vt 0.933800 0.950000
v 3.082208 -1.762806 15.391802
vt 0.933800 0.860000
v 3.249776 -0.924384 15.164537
vt 0.943200 0.950000
v 3.123292 -1.765020 15.392111
vt 0.943200 0.860000
v 3.311441 -0.901441 15.353243
vt 0.952600 0.950000
v 3.135988 -1.760297 15.430962
vt 0.952600 0.860000
v -2.550000 -0.836832 17.058314
vt 0.915000 0.950000
v -2.511750 -1.674932 17.054631
vt 0.915000 0.860000
v -2.702007 -0.859783 16.949938
vt 0.924400 0.950000
v -2.545002 -1.679952 17.030924
vt 0.924400 0.860000
v -2.643946 -0.883034 16.772549
vt 0.933800 0.950000
v -2.532301 -1.685039 16.992120
vt 0.933800 0.860000
v -2.456054 -0.874453 16.771294
vt 0.943200 0.950000
v -2.491199 -1.683162 16.991845
vt 0.943200 0.860000
v -2.397993 -0.845899 16.947906
vt 0.952600 0.950000
v -2.478498 -1.676915 17.030479
vt 0.952600 0.860000
v 2.550000 -0.836832 17.058314
vt 0.915000 0.950000
v 2.511750 -1.674932 17.054631
vt 0.915000 0.860000
v 2.397993 -0.845899 16.947906
vt 0.924400 0.950000
v 2.478498 -1.676915 17.030479
vt 0.924400 0.860000
v 2.456054 -0.874453 16.771294
vt 0.933800 0.950000
v 2.491199 -1.683162 16.991845
vt 0.933800 0.860000
v 2.643946 -0.883034 16.772549
vt 0.943200 0.950000
v 2.532301 -1.685039 16.992120
vt 0.943200 0.860000
v 2.702007 -0.859783 16.949938
vt 0.952600 0.950000
v 2.545002 -1.679952 17.030924
vt 0.952600 0.860000
v -1.150000 -0.813041 17.888481
vt 0.915000 0.950000
v -1.120000 -1.986069 17.814778
vt 0.915000 0.860000
v -1.378177 -0.837547 17.724359
vt 0.924400 0.950000
v -1.153276 -1.989642 17.790844
vt 0.924400 0.860000
v -1.291021 -0.865442 17.457475
vt 0.933800 0.950000
v -1.140566 -1.993710 17.751923
vt 0.933800 0.860000
v -1.008979 -0.858178 17.456654
vt 0.943200 0.950000
v -1.099434 -1.992651 17.751804
vt 0.943200 0.860000
v -0.921823 -0.825792 17.723030
vt 0.952600 0.950000
v -1.086724 -1.987928 17.790650
vt 0.952600 0.860000
v 1.150000 -0.813041 17.888481
vt 0.915000 0.950000
v 1.120000 -1.986069 17.814778
vt 0.915000 0.860000
v 0.921823 -0.825792 17.723030
vt 0.924400 0.950000
v 1.086724 -1.987928 17.790650
vt 0.924400 0.860000
v 1.008979 -0.858178 17.456654
vt 0.933800 0.950000
v 1.099434 -1.992651 17.751804
vt 0.933800 0.860000
v 1.291021 -0.865442 17.457475
vt 0.943200 0.950000
v 1.140566 -1.993710 17.751923
vt 0.943200 0.860000
v 1.378177 -0.837547 17.724359
vt 0.952600 0.950000
v 1.153276 -1.989642 17.790844
vt 0.952600 0.860000
f 1/1 2/2 11/11
f 1/1 11/11 10/10
f 2/2 3/3 12/12
f 2/2 12/12 11/11
f 3/3 4/4 13/13
f 3/3 13/13 12/12
f 4/4 5/5 14/14
f 4/4 14/14 13/13
f 5/5 6/6 15/15
f 5/5 15/15 14/14
f 6/6 7/7 16/16
f 6/6 16/16 15/15
f 7/7 8/8 17/17
f 7/7 17/17 16/16
f 8/8 9/9 18/18
f 8/8 18/18 17/17
f 10/10 11/11 20/20
f 10/10 20/20 19/19
f 11/11 12/12 21/21
f 11/11 21/21 20/20
f 12/12 13/13 22/22
f 12/12 22/22 21/21
f 13/13 14/14 23/23
f 13/13 23/23 22/22
f 14/14 15/15 24/24
f 14/14 24/24 23/23
f 15/15 16/16 25/25
f 15/15 25/25 24/24
f 16/16 17/17 26/26
f 16/16 26/26 25/25
f 17/17 18/18 27/27
f 17/17 27/27 26/26
f 19/19 20/20 29/29
f 19/19 29/29 28/28
f 20/20 21/21 30/30
f 20/20 30/30 29/29
f 21/21 22/22 31/31
f 21/21 31/31 30/30
f 22/22 23/23 32/32
f 22/22 32/32 31/31
f 23/23 24/24 33/33
f 23/23 33/33 32/32
f 24/24 25/25 34/34
f 24/24 34/34 33/33
f 25/25 26/26 35/35
f 25/25 35/35 34/34
f 26/26 27/27 36/36
f 26/26 36/36 35/35
f 28/28 29/29 38/38
f 28/28 38/38 37/37
f 29/29 30/30 39/39
f 29/29 39/39 38/38
f 30/30 31/31 40/40
f 30/30 40/40 39/39
f 31/31 32/32 41/41
f 31/31 41/41 40/40
f 32/32 33/33 42/42
f 32/32 42/42 41/41
f 33/33 34/34 43/43
f 33/33 43/43 42/42
f 34/34 35/35 44/44
f 34/34 44/44 43/43
f 35/35 36/36 45/45
f 35/35 45/45 44/44
f 37/37 38/38 47/47
f 37/37 47/47 46/46
f 38/38 39/39 48/48
f 38/38 48/48 47/47
f 39/39 40/40 49/49
f 39/39 49/49 48/48
f 40/40 41/41 50/50
f 40/40 50/50 49/49
f 41/41 42/42 51/51
f 41/41 51/51 50/50
f 42/42 43/43 52/52
f 42/42 52/52 51/51
f 43/43 44/44 53/53
f 43/43 53/53 52/52
f 44/44 45/45 54/54
f 44/44 54/54 53/53
f 46/46 47/47 56/56
f 46/46 56/56 55/55
f 47/47 48/48 57/57
f 47/47 57/57 56/56
f 48/48 49/49 58/58
f 48/48 58/58 57/57
f 49/49 50/50 59/59
f 49/49 59/59 58/58
f 50/50 51/51 60/60
f 50/50 60/60 59/59
f 51/51 52/52 61/61
f 51/51 61/61 60/60
f 52/52 53/53 62/62
f 52/52 62/62 61/61
f 53/53 54/54 63/63
f 53/53 63/63 62/62
f 55/55 56/56 65/65
f 55/55 65/65 64/64
f 56/56 57/57 66/66
f 56/56 66/66 65/65
f 57/57 58/58 67/67
f 57/57 67/67 66/66
f 58/58 59/59 68/68
f 58/58 68/68 67/67
f 59/59 60/60 69/69
f 59/59 69/69 68/68
f 60/60 61/61 70/70
f 60/60 70/70 69/69
f 61/61 62/62 71/71
f 61/61 71/71 70/70
f 62/62 63/63 72/72
f 62/62 72/72 71/71
f 64/64 65/65 74/74
f 64/64 74/74 73/73
f 65/65 66/66 75/75
f 65/65 75/75 74/74
f 66/66 67/67 76/76
f 66/66 76/76 75/75
f 67/67 68/68 77/77
f 67/67 77/77 76/76
f 68/68 69/69 78/78
f 68/68 78/78 77/77
f 69/69 70/70 79/79
f 69/69 79/79 78/78
f 70/70 71/71 80/80
f 70/70 80/80 79/79
f 71/71 72/72 81/81
f 71/71 81/81 80/80
f 73/73 74/74 83/83
f 73/73 83/83 82/82
f 74/74 75/75 84/84
f 74/74 84/84 83/83
f 75/75 76/76 85/85
f 75/75 85/85 84/84
f 76/76 77/77 86/86
f 76/76 86/86 85/85
f 77/77 78/78 87/87
f 77/77 87/87 86/86
f 78/78 79/79 88/88
f 78/78 88/88 87/87
f 79/79 80/80 89/89
f 79/79 89/89 88/88
f 80/80 81/81 90/90
f 80/80 90/90 89/89
f 91/91 2/2 1/1
f 91/91 3/3 2/2
f 91/91 4/4 3/3
f 91/91 5/5 4/4
f 91/91 6/6 5/5
f 91/91 7/7 6/6
f 91/91 8/8 7/7
f 91/91 9/9 8/8
f 92/92 82/82 83/83
f 92/92 83/83 84/84
f 92/92 84/84 85/85
f 92/92 85/85 86/86
f 92/92 86/86 87/87
f 92/92 87/87 88/88
f 92/92 88/88 89/89
f 92/92 89/89 90/90
f 93/93 94/94 95/95
f 93/93 95/95 96/96
f 96/96 95/95 97/97
f 96/96 97/97 98/98
f 93/93 96/96 98/98
f 93/93 98/98 98/98
f 94/94 97/97 95/95
f 94/94 95/95 95/95
f 99/99 100/100 101/101
f 99/99 101/101 102/102
f 102/102 101/101 103/103
f 102/102 103/103 104/104
f 99/99 102/102 104/104
f 99/99 104/104 104/104
f 100/100 103/103 101/101
f 100/100 101/101 101/101
f 105/105 106/106 107/107
f 105/105 107/107 108/108
f 108/108 107/107 109/109
f 108/108 109/109 110/110
f 105/105 108/108 110/110
f 105/105 110/110 110/110
f 106/106 109/109 107/107
f 106/106 107/107 107/107
f 111/111 112/112 113/113
f 111/111 113/113 114/114
f 114/114 113/113 115/115
f 114/114 115/115 116/116
f 111/111 114/114 116/116
f 111/111 116/116 116/116
f 112/112 115/115 113/113
f 112/112 113/113 113/113
f 117/117 118/118 119/119
f 117/117 119/119 120/120
f 120/120 119/119 121/121
f 120/120 121/121 122/122
f 117/117 120/120 122/122
f 117/117 122/122 122/122
f 118/118 121/121 119/119
f 118/118 119/119 119/119
f 123/123 124/124 125/125
f 123/123 125/125 126/126
f 130/130 129/129 128/128
f 130/130 128/128 127/127
f 123/123 124/124 128/128
f 123/123 128/128 127/127
f 124/124 125/125 129/129
f 124/124 129/129 128/128
f 125/125 126/126 130/130
f 125/125 130/130 129/129
f 126/126 123/123 127/127
f 126/126 127/127 130/130
f 131/131 132/132 133/133
f 131/131 133/133 134/134
f 138/138 137/137 136/136
f 138/138 136/136 135/135
f 131/131 132/132 136/136
f 131/131 136/136 135/135
f 132/132 133/133 137/137
f 132/132 137/137 136/136
f 133/133 134/134 138/138
f 133/133 138/138 137/137
f 134/134 131/131 135/135
f 134/134 135/135 138/138
f 139/139 140/140 141/141
f 139/139 141/141 142/142
f 146/146 145/145 144/144
f 146/146 144/144 143/143
f 139/139 140/140 144/144
f 139/139 144/144 143/143
f 140/140 141/141 145/145
f 140/140 145/145 144/144
f 141/141 142/142 146/146
f 141/141 146/146 145/145
f 142/142 139/139 143/143
f 142/142 143/143 146/146
f 147/147 148/148 149/149
f 147/147 149/149 150/150
f 154/154 153/153 152/152
f 154/154 152/152 151/151
f 147/147 148/148 152/152
f 147/147 152/152 151/151
f 148/148 149/149 153/153
f 148/148 153/153 152/152
f 149/149 150/150 154/154
f 149/149 154/154 153/153
f 150/150 147/147 151/151
f 150/150 151/151 154/154
f 155/155 156/156 157/157
f 155/155 157/157 158/158
f 159/159 160/160 161/161
f 159/159 161/161 162/162
f 163/163 164/164 165/165
f 163/163 165/165 166/166
f 167/167 168/168 169/169
f 167/167 169/169 170/170
f 171/171 173/173 174/174
f 171/171 174/174 172/172
f 173/173 175/175 176/176
f 173/173 176/176 174/174
f 175/175 177/177 178/178
f 175/175 178/178 176/176
f 177/177 179/179 180/180
f 177/177 180/180 178/178
f 179/179 181/181 182/182
f 179/179 182/182 180/180
f 181/181 183/183 184/184
f 181/181 184/184 182/182
f 183/183 171/171 172/172
f 183/183 172/172 184/184
f 185/185 187/187 188/188
f 185/185 188/188 186/186
f 187/187 189/189 190/190
f 187/187 190/190 188/188
f 189/189 191/191 192/192
f 189/189 192/192 190/190
f 191/191 193/193 194/194
f 191/191 194/194 192/192
f 193/193 195/195 196/196
f 193/193 196/196 194/194
f 195/195 197/197 198/198
f 195/195 198/198 196/196
f 197/197 185/185 186/186
f 197/197 186/186 198/198
f 199/199 201/201 202/202
f 199/199 202/202 200/200
f 201/201 203/203 204/204
f 201/201 204/204 202/202
f 203/203 205/205 206/206
f 203/203 206/206 204/204
f 205/205 207/207 208/208
f 205/205 208/208 206/206
f 207/207 209/209 210/210
f 207/207 210/210 208/208
f 209/209 211/211 212/212
f 209/209 212/212 210/210
f 211/211 199/199 200/200
f 211/211 200/200 212/212
f 213/213 215/215 216/216
f 213/213 216/216 214/214
f 215/215 217/217 218/218
f 215/215 218/218 216/216
f 217/217 219/219 220/220
f 217/217 220/220 218/218
f 219/219 221/221 222/222
f 219/219 222/222 220/220
f 221/221 223/223 224/224
f 221/221 224/224 222/222
f 223/223 225/225 226/226
f 223/223 226/226 224/224
f 225/225 213/213 214/214
f 225/225 214/214 226/226
f 227/227 229/229 230/230
f 227/227 230/230 228/228
f 229/229 231/231 232/232
f 229/229 232/232 230/230
f 231/231 233/233 234/234
f 231/231 234/234 232/232
f 233/233 235/235 236/236
f 233/233 236/236 234/234
f 235/235 237/237 238/238
f 235/235 238/238 236/236
f 237/237 239/239 240/240
f 237/237 240/240 238/238
f 239/239 227/227 228/228
f 239/239 228/228 240/240
f 241/241 243/243 244/244
f 241/241 244/244 242/242
f 243/243 245/245 246/246
f 243/243 246/246 244/244
f 245/245 247/247 248/248
f 245/245 248/248 246/246
f 247/247 249/249 250/250
f 247/247 250/250 248/248
f 249/249 251/251 252/252
f 249/249 252/252 250/250
f 251/251 253/253 254/254
f 251/251 254/254 252/252
f 253/253 241/241 242/242
f 253/253 242/242 254/254
f 255/255 257/257 258/258
f 255/255 258/258 256/256
f 257/257 259/259 260/260
f 257/257 260/260 258/258
f 259/259 261/261 262/262
f 259/259 262/262 260/260
f 261/261 263/263 264/264
f 261/261 264/264 262/262
f 263/263 265/265 266/266
f 263/263 266/266 264/264
f 265/265 267/267 268/268
f 265/265 268/268 266/266
f 267/267 255/255 256/256
f 267/267 256/256 268/268
f 269/269 271/271 272/272
f 269/269 272/272 270/270
f 271/271 273/273 274/274
f 271/271 274/274 272/272
f 273/273 275/275 276/276
f 273/273 276/276 274/274
f 275/275 277/277 278/278
f 275/275 278/278 276/276
f 277/277 279/279 280/280
f 277/277 280/280 278/278
f 279/279 281/281 282/282
f 279/279 282/282 280/280
f 281/281 269/269 270/270
f 281/281 270/270 282/282
f 283/283 285/285 286/286
f 283/283 286/286 284/284
f 285/285 287/287 288/288
f 285/285 288/288 286/286
f 287/287 289/289 290/290
f 287/287 290/290 288/288
f 289/289 291/291 292/292
f 289/289 292/292 290/290
f 291/291 293/293 294/294
f 291/291 294/294 292/292
f 293/293 295/295 296/296
f 293/293 296/296 294/294
f 295/295 283/283 284/284
f 295/295 284/284 296/296
f 297/297 299/299 300/300
f 297/297 300/300 298/298
f 299/299 301/301 302/302
f 299/299 302/302 300/300
f 301/301 303/303 304/304
f 301/301 304/304 302/302
f 303/303 305/305 306/306
f 303/303 306/306 304/304
f 305/305 307/307 308/308
f 305/305 308/308 306/306
f 307/307 309/309 310/310
f 307/307 310/310 308/308
f 309/309 297/297 298/298
f 309/309 298/298 310/310
f 311/311 313/313 314/314
f 311/311 314/314 312/312
f 313/313 315/315 316/316
f 313/313 316/316 314/314
f 315/315 317/317 318/318
f 315/315 318/318 316/316
f 317/317 319/319 320/320
f 317/317 320/320 318/318
f 319/319 321/321 322/322
f 319/319 322/322 320/320
f 321/321 323/323 324/324
f 321/321 324/324 322/322
f 323/323 311/311 312/312
f 323/323 312/312 324/324
f 325/325 327/327 328/328
f 325/325 328/328 326/326
f 327/327 329/329 330/330
f 327/327 330/330 328/328
f 329/329 331/331 332/332
f 329/329 332/332 330/330
f 331/331 333/333 334/334
f 331/331 334/334 332/332
f 333/333 335/335 336/336
f 333/333 336/336 334/334
f 335/335 337/337 338/338
f 335/335 338/338 336/336
f 337/337 325/325 326/326
f 337/337 326/326 338/338
f 339/339 341/341 342/342
f 339/339 342/342 340/340
f 341/341 343/343 344/344
f 341/341 344/344 342/342
f 343/343 345/345 346/346
f 343/343 346/346 344/344
f 345/345 347/347 348/348
f 345/345 348/348 346/346
f 347/347 349/349 350/350
f 347/347 350/350 348/348
f 349/349 351/351 352/352
f 349/349 352/352 350/350
f 351/351 339/339 340/340
f 351/351 340/340 352/352
f 353/353 355/355 356/356
f 353/353 356/356 354/354
f 355/355 357/357 358/358
f 355/355 358/358 356/356
f 357/357 359/359 360/360
f 357/357 360/360 358/358
f 359/359 361/361 362/362
f 359/359 362/362 360/360
f 361/361 363/363 364/364
f 361/361 364/364 362/362
f 363/363 365/365 366/366
f 363/363 366/366 364/364
f 365/365 353/353 354/354
f 365/365 354/354 366/366
f 367/367 369/369 370/370
f 367/367 370/370 368/368
f 369/369 371/371 372/372
f 369/369 372/372 370/370
f 371/371 373/373 374/374
f 371/371 374/374 372/372
f 373/373 375/375 376/376
f 373/373 376/376 374/374
f 375/375 377/377 378/378
f 375/375 378/378 376/376
f 377/377 367/367 368/368
f 377/377 368/368 378/378
f 379/379 381/381 382/382
f 379/379 382/382 380/380
f 381/381 383/383 384/384
f 381/381 384/384 382/382
f 383/383 385/385 386/386
f 383/383 386/386 384/384
f 385/385 387/387 388/388
f 385/385 388/388 386/386
f 387/387 389/389 390/390
f 387/387 390/390 388/388
f 389/389 379/379 380/380
f 389/389 380/380 390/390
f 391/391 393/393 394/394
f 391/391 394/394 392/392
f 393/393 395/395 396/396
f 393/393 396/396 394/394
f 395/395 397/397 398/398
f 395/395 398/398 396/396
f 397/397 399/399 400/400
f 397/397 400/400 398/398
f 399/399 401/401 402/402
f 399/399 402/402 400/400
f 401/401 391/391 392/392
f 401/401 392/392 402/402
f 403/403 405/405 406/406
f 403/403 406/406 404/404
f 405/405 407/407 408/408
f 405/405 408/408 406/406
f 407/407 409/409 410/410
f 407/407 410/410 408/408
f 409/409 411/411 412/412
f 409/409 412/412 410/410
f 411/411 413/413 414/414
f 411/411 414/414 412/412
f 413/413 403/403 404/404
f 413/413 404/404 414/414
f 415/415 417/417 418/418
f 415/415 418/418 416/416
f 417/417 419/419 420/420
f 417/417 420/420 418/418
f 419/419 421/421 422/422
f 419/419 422/422 420/420
f 421/421 423/423 424/424
f 421/421 424/424 422/422
f 423/423 425/425 426/426
f 423/423 426/426 424/424
f 425/425 415/415 416/416
f 425/425 416/416 426/426
f 427/427 429/429 430/430
f 427/427 430/430 428/428
f 429/429 431/431 432/432
f 429/429 432/432 430/430
f 431/431 433/433 434/434
f 431/431 434/434 432/432
f 433/433 435/435 436/436
f 433/433 436/436 434/434
f 435/435 437/437 438/438
f 435/435 438/438 436/436
f 437/437 427/427 428/428
f 437/437 428/428 438/438
f 439/439 441/441 442/442
f 439/439 442/442 440/440
f 441/441 443/443 444/444
f 441/441 444/444 442/442
f 443/443 445/445 446/446
f 443/443 446/446 444/444
f 445/445 447/447 448/448
f 445/445 448/448 446/446
f 447/447 449/449 450/450
f 447/447 450/450 448/448
f 449/449 439/439 440/440
f 449/449 440/440 450/450
f 451/451 453/453 454/454
f 451/451 454/454 452/452
f 453/453 455/455 456/456
f 453/453 456/456 454/454
f 455/455 457/457 458/458
f 455/455 458/458 456/456
f 457/457 459/459 460/460
f 457/457 460/460 458/458
f 459/459 461/461 462/462
f 459/459 462/462 460/460
f 461/461 451/451 452/452
f 461/461 452/452 462/462
f 463/463 465/465 466/466
f 463/463 466/466 464/464
f 465/465 467/467 468/468
f 465/465 468/468 466/466
f 467/467 469/469 470/470
f 467/467 470/470 468/468
f 469/469 471/471 472/472
f 469/469 472/472 470/470
f 471/471 473/473 474/474
f 471/471 474/474 472/472
f 473/473 463/463 464/464
f 473/473 464/464 474/474
f 475/475 477/477 478/478
f 475/475 478/478 476/476
f 477/477 479/479 480/480
f 477/477 480/480 478/478
f 479/479 481/481 482/482
f 479/479 482/482 480/480
f 481/481 483/483 484/484
f 481/481 484/484 482/482
f 483/483 485/485 486/486
f 483/483 486/486 484/484
f 485/485 475/475 476/476
f 485/485 476/476 486/486
f 487/487 489/489 490/490
f 487/487 490/490 488/488
f 489/489 491/491 492/492
f 489/489 492/492 490/490
f 491/491 493/493 494/494
f 491/491 494/494 492/492
f 493/493 495/495 496/496
f 493/493 496/496 494/494
f 495/495 497/497 498/498
f 495/495 498/498 496/496
f 497/497 487/487 488/488
f 497/497 488/488 498/498
f 499/499 501/501 502/502
f 499/499 502/502 500/500
f 501/501 503/503 504/504
f 501/501 504/504 502/502
f 503/503 505/505 506/506
f 503/503 506/506 504/504
f 505/505 507/507 508/508
f 505/505 508/508 506/506
f 507/507 509/509 510/510
f 507/507 510/510 508/508
f 509/509 499/499 500/500
f 509/509 500/500 510/510
f 511/511 513/513 514/514
f 511/511 514/514 512/512
f 513/513 515/515 516/516
f 513/513 516/516 514/514
f 515/515 517/517 518/518
f 515/515 518/518 516/516
f 517/517 519/519 520/520
f 517/517 520/520 518/518
f 519/519 521/521 522/522
f 519/519 522/522 520/520
f 521/521 511/511 512/512
f 521/521 512/512 522/522
f 523/523 525/525 526/526
f 523/523 526/526 524/524
f 525/525 527/527 528/528
f 525/525 528/528 526/526
f 527/527 529/529 530/530
f 527/527 530/530 528/528
f 529/529 531/531 532/532
f 529/529 532/532 530/530
f 531/531 523/523 524/524
f 531/531 524/524 532/532
f 533/533 535/535 536/536
f 533/533 536/536 534/534
f 535/535 537/537 538/538
f 535/535 538/538 536/536
f 537/537 539/539 540/540
f 537/537 540/540 538/538
f 539/539 541/541 542/542
f 539/539 542/542 540/540
f 541/541 533/533 534/534
f 541/541 534/534 542/542
f 543/543 545/545 546/546
f 543/543 546/546 544/544
f 545/545 547/547 548/548
f 545/545 548/548 546/546
f 547/547 549/549 550/550
f 547/547 550/550 548/548
f 549/549 551/551 552/552
f 549/549 552/552 550/550
f 551/551 543/543 544/544
f 551/551 544/544 552/552
f 553/553 555/555 556/556
f 553/553 556/556 554/554
f 555/555 557/557 558/558
f 555/555 558/558 556/556
f 557/557 559/559 560/560
f 557/557 560/560 558/558
f 559/559 561/561 562/562
f 559/559 562/562 560/560
f 561/561 553/553 554/554
f 561/561 554/554 562/562
f 563/563 565/565 566/566
f 563/563 566/566 564/564
f 565/565 567/567 568/568
f 565/565 568/568 566/566
f 567/567 569/569 570/570
f 567/567 570/570 568/568
f 569/569 571/571 572/572
f 569/569 572/572 570/570
f 571/571 563/563 564/564
f 571/571 564/564 572/572
f 573/573 575/575 576/576
f 573/573 576/576 574/574
f 575/575 577/577 578/578
f 575/575 578/578 576/576
f 577/577 579/579 580/580
f 577/577 580/580 578/578
f 579/579 581/581 582/582
f 579/579 582/582 580/580
f 581/581 573/573 574/574
f 581/581 574/574 582/582
f 583/583 585/585 586/586
f 583/583 586/586 584/584
f 585/585 587/587 588/588
f 585/585 588/588 586/586
f 587/587 589/589 590/590
f 587/587 590/590 588/588
f 589/589 591/591 592/592
f 589/589 592/592 590/590
f 591/591 583/583 584/584
f 591/591 584/584 592/592
f 593/593 595/595 596/596
f 593/593 596/596 594/594
f 595/595 597/597 598/598
f 595/595 598/598 596/596
f 597/597 599/599 600/600
f 597/597 600/600 598/598
f 599/599 601/601 602/602
f 599/599 602/602 600/600
f 601/601 593/593 594/594
f 601/601 594/594 602/602
f 603/603 605/605 606/606
f 603/603 606/606 604/604
f 605/605 607/607 608/608
f 605/605 608/608 606/606
f 607/607 609/609 610/610
f 607/607 610/610 608/608
f 609/609 611/611 612/612
f 609/609 612/612 610/610
f 611/611 603/603 604/604
f 611/611 604/604 612/612
f 613/613 615/615 616/616
f 613/613 616/616 614/614
f 615/615 617/617 618/618
f 615/615 618/618 616/616
f 617/617 619/619 620/620
f 617/617 620/620 618/618
f 619/619 621/621 622/622
f 619/619 622/622 620/620
f 621/621 613/613 614/614
f 621/621 614/614 622/622
f 623/623 625/625 626/626
f 623/623 626/626 624/624
f 625/625 627/627 628/628
f 625/625 628/628 626/626
f 627/627 629/629 630/630
f 627/627 630/630 628/628
f 629/629 631/631 632/632
f 629/629 632/632 630/630
f 631/631 623/623 624/624
f 631/631 624/624 632/632
f 633/633 635/635 636/636
f 633/633 636/636 634/634
f 635/635 637/637 638/638
f 635/635 638/638 636/636
f 637/637 639/639 640/640
f 637/637 640/640 638/638
f 639/639 641/641 642/642
f 639/639 642/642 640/640
f 641/641 633/633 634/634
f 641/641 634/634 642/642
f 643/643 645/645 646/646
f 643/643 646/646 644/644
f 645/645 647/647 648/648
f 645/645 648/648 646/646
f 647/647 649/649 650/650
f 647/647 650/650 648/648
f 649/649 651/651 652/652
f 649/649 652/652 650/650
f 651/651 643/643 644/644
f 651/651 644/644 652/652
f 653/653 655/655 656/656
f 653/653 656/656 654/654
f 655/655 657/657 658/658
f 655/655 658/658 656/656
f 657/657 659/659 660/660
f 657/657 660/660 658/658
f 659/659 661/661 662/662
f 659/659 662/662 660/660
f 661/661 653/653 654/654
f 661/661 654/654 662/662
g jaw
v -6.300000 1.574000 -2.000000
vt 0.035000 0.245000
v -6.300000 0.832000 -2.000000
vt 0.139167 0.245000
v -4.536000 -0.864000 -2.000000
vt 0.243333 0.245000
v 0.000000 -1.712000 -2.000000
vt 0.347500 0.245000
v 4.536000 -0.864000 -2.000000
vt 0.451667 0.245000
v 6.300000 0.832000 -2.000000
vt 0.555833 0.245000
v 6.300000 1.574000 -2.000000
vt 0.660000 0.245000
v -6.100000 1.538000 1.000000
vt 0.035000 0.210833
v -6.100000 0.824000 1.000000
vt 0.139167 0.210833
v -4.392000 -0.808000 1.000000
vt 0.243333 0.210833
v 0.000000 -1.624000 1.000000
vt 0.347500 0.210833
v 4.392000 -0.808000 1.000000
vt 0.451667 0.210833
v 6.100000 0.824000 1.000000
vt 0.555833 0.210833
v 6.100000 1.538000 1.000000
vt 0.660000 0.210833
v -5.600000 1.476000 4.000000
vt 0.035000 0.176667
v -5.600000 0.818000 4.000000
vt 0.139167 0.176667
v -4.032000 -0.686000 4.000000
vt 0.243333 0.176667
v 0.000000 -1.438000 4.000000
vt 0.347500 0.176667
v 4.032000 -0.686000 4.000000
vt 0.451667 0.176667
v 5.600000 0.818000 4.000000
vt 0.555833 0.176667
v 5.600000 1.476000 4.000000
vt 0.660000 0.176667
v -4.850000 1.398000 7.000000
vt 0.035000 0.142500
v -4.850000 0.824000 7.000000
vt 0.139167 0.142500
v -3.492000 -0.488000 7.000000
vt 0.243333 0.142500
v 0.000000 -1.144000 7.000000
vt 0.347500 0.142500
v 3.492000 -0.488000 7.000000
vt 0.451667 0.142500
v 4.850000 0.824000 7.000000
vt 0.555833 0.142500
v 4.850000 1.398000 7.000000
vt 0.660000 0.142500
v -4.050000 1.325200 9.800000
vt 0.035000 0.108333
v -4.050000 0.843600 9.800000
vt 0.139167 0.108333
v -2.916000 -0.257200 9.800000
vt 0.243333 0.108333
v 0.000000 -0.807600 9.800000
vt 0.347500 0.108333
v 2.916000 -0.257200 9.800000
vt 0.451667 0.108333
v 4.050000 0.843600 9.800000
vt 0.555833 0.108333
v 4.050000 1.325200 9.800000
vt 0.660000 0.108333
v -3.250000 1.250800 12.200000
vt 0.035000 0.074167
v -3.250000 0.864400 12.200000
vt 0.139167 0.074167
v -2.340000 -0.018800 12.200000
vt 0.243333 0.074167
v 0.000000 -0.460400 12.200000
vt 0.347500 0.074167
v 2.340000 -0.018800 12.200000
vt 0.451667 0.074167
v 3.250000 0.864400 12.200000
vt 0.555833 0.074167
v 3.250000 1.250800 12.200000
vt 0.660000 0.074167
v -2.480000 1.182800 14.250000
vt 0.035000 0.040000
v -2.480000 0.880400 14.250000
vt 0.139167 0.040000
v -1.785600 0.189200 14.250000
vt 0.243333 0.040000
v 0.000000 -0.156400 14.250000
vt 0.347500 0.040000
v 1.785600 0.189200 14.250000
vt 0.451667 0.040000
v 2.480000 0.880400 14.250000
vt 0.555833 0.040000
v 2.480000 1.182800 14.250000
vt 0.660000 0.040000
v 0.000000 0.500000 -2.350000
vt 0.300000 0.100000
v 0.000000 0.530000 17.250000
vt 0.300000 0.100000
v -3.700000 1.270000 -0.000000
vt 0.945000 0.700000
v 3.700000 1.270000 -0.000000
vt 0.992000 0.700000
v -3.500000 1.230000 3.500000
vt 0.945000 0.665000
v 3.500000 1.230000 3.500000
vt 0.992000 0.665000
v -3.000000 1.190000 7.000000
vt 0.945000 0.630000
v 3.000000 1.190000 7.000000
vt 0.992000 0.630000
v -2.300000 1.150000 10.500000
vt 0.945000 0.595000
v 2.300000 1.150000 10.500000
vt 0.992000 0.595000
v -1.400000 1.110000 13.000000
vt 0.945000 0.560000
v 1.400000 1.110000 13.000000
vt 0.992000 0.560000
v -5.250000 1.290982 2.811162
vt 0.915000 0.950000
v -5.171250 2.173865 3.065214
vt 0.915000 0.860000
v -5.430021 1.292044 2.943375
vt 0.924400 0.950000
v -5.204412 2.174061 3.089569
vt 0.924400 0.860000
v -5.361259 1.262642 3.153842
vt 0.933800 0.950000
v -5.191745 2.168645 3.128339
vt 0.933800 0.860000
v -5.138741 1.243409 3.151705
vt 0.943200 0.950000
v -5.150755 2.165102 3.127946
vt 0.943200 0.860000
v -5.069979 1.260924 2.939917
vt 0.952600 0.950000
v -5.138088 2.168328 3.088932
vt 0.952600 0.860000
v 5.250000 1.290982 2.811162
vt 0.915000 0.950000
v 5.171250 2.173865 3.065214
vt 0.915000 0.860000
v 5.069979 1.260924 2.939917
vt 0.924400 0.950000
v 5.138088 2.168328 3.088932
vt 0.924400 0.860000
v 5.138741 1.243409 3.151705
vt 0.933800 0.950000
v 5.150755 2.165102 3.127946
vt 0.933800 0.860000
v 5.361259 1.262642 3.153842
vt 0.943200 0.950000
v 5.191745 2.168645 3.128339
vt 0.943200 0.860000
v 5.430021 1.292044 2.943375
vt 0.952600 0.950000
v 5.204412 2.174061 3.089569
vt 0.952600 0.860000
v -4.850000 1.270324 5.621151
vt 0.915000 0.950000
v -4.777250 2.133952 5.865224
vt 0.915000 0.860000
v -5.020616 1.270205 5.746315
vt 0.924400 0.950000
v -4.810425 2.133929 5.889561
vt 0.924400 0.860000
v -4.955446 1.242164 5.945670
vt 0.933800 0.950000
v -4.797753 2.128476 5.928325
vt 0.933800 0.860000
v -4.744554 1.224952 5.943714
vt 0.943200 0.950000
v -4.756747 2.125129 5.927944
vt 0.943200 0.860000
v -4.679384 1.242355 5.743150
vt 0.952600 0.950000
v -4.744075 2.128514 5.888946
vt 0.952600 0.860000
v 4.850000 1.270324 5.621151
vt 0.915000 0.950000
v 4.777250 2.133952 5.865224
vt 0.915000 0.860000
v 4.679384 1.242355 5.743150
vt 0.924400 0.950000
v 4.744075 2.128514 5.888946
vt 0.924400 0.860000
v 4.744554 1.224952 5.943714
vt 0.933800 0.950000
v 4.756747 2.125129 5.927944
vt 0.933800 0.860000
v 4.955446 1.242164 5.945670
vt 0.943200 0.950000
v 4.797753 2.128476 5.928325
vt 0.943200 0.860000
v 5.020616 1.270205 5.746315
vt 0.952600 0.950000
v 4.810425 2.133929 5.889561
vt 0.952600 0.860000
v -4.250000 1.249863 8.331164
vt 0.915000 0.950000
v -4.186250 2.084089 8.565240
vt 0.915000 0.860000
v -4.411233 1.248065 8.449230
vt 0.924400 0.950000
v -4.219445 2.083719 8.589547
vt 0.924400 0.860000
v -4.349647 1.221302 8.637458
vt 0.933800 0.950000
v -4.206766 2.078209 8.628300
vt 0.933800 0.860000
v -4.150353 1.206559 8.635724
vt 0.943200 0.950000
v -4.165734 2.075174 8.627943
vt 0.943200 0.860000
v -4.088767 1.224211 8.446424
vt 0.952600 0.950000
v -4.153055 2.078808 8.588970
vt 0.952600 0.860000
v 4.250000 1.249863 8.331164
vt 0.915000 0.950000
v 4.186250 2.084089 8.565240
vt 0.915000 0.860000
v 4.088767 1.224211 8.446424
vt 0.924400 0.950000
v 4.153055 2.078808 8.588970
vt 0.924400 0.860000
v 4.150353 1.206559 8.635724
vt 0.933800 0.950000
v 4.165734 2.075174 8.627943
vt 0.933800 0.860000
v 4.349647 1.221302 8.637458
vt 0.943200 0.950000
v 4.206766 2.078209 8.628300
vt 0.943200 0.860000
v 4.411233 1.248065 8.449230
vt 0.952600 0.950000
v 4.219445 2.083719 8.589547
vt 0.952600 0.860000
v -3.550000 1.229369 10.841177
vt 0.915000 0.950000
v -3.496750 2.034237 11.065257
vt 0.915000 0.860000
v -3.701854 1.225702 10.952106
vt 0.924400 0.950000
v -3.529968 2.033435 11.089523
vt 0.924400 0.860000
v -3.643851 1.200336 11.129223
vt 0.933800 0.950000
v -3.517280 2.027886 11.128268
vt 0.933800 0.860000
v -3.456149 1.188325 11.127758
vt 0.943200 0.950000
v -3.476220 2.025259 11.127947
vt 0.943200 0.860000
v -3.398146 1.206269 10.949736
vt 0.952600 0.950000
v -3.463532 2.029184 11.089005
vt 0.952600 0.860000
v 3.550000 1.229369 10.841177
vt 0.915000 0.950000
v 3.496750 2.034237 11.065257
vt 0.915000 0.860000
v 3.398146 1.206269 10.949736
vt 0.924400 0.950000
v 3.463532 2.029184 11.089005
vt 0.924400 0.860000
v 3.456149 1.188325 11.127758
vt 0.933800 0.950000
v 3.476220 2.025259 11.127947
vt 0.933800 0.860000
v 3.643851 1.200336 11.129223
vt 0.943200 0.950000
v 3.517280 2.027886 11.128268
vt 0.943200 0.860000
v 3.701854 1.225702 10.952106
vt 0.952600 0.950000
v 3.529968 2.033435 11.089523
vt 0.952600 0.860000
v -2.850000 1.208605 13.051158
vt 0.915000 0.950000
v -2.807250 1.994341 13.265270
vt 0.915000 0.860000
v -2.992458 1.203245 13.154942
vt 0.924400 0.950000
v -2.840490 1.993090 13.289487
vt 0.924400 0.860000
v -2.938044 1.179581 13.320995
vt 0.933800 0.950000
v -2.827794 1.987569 13.328232
vt 0.933800 0.860000
v -2.761956 1.170316 13.319836
vt 0.943200 0.950000
v -2.786706 1.985407 13.327962
vt 0.943200 0.860000
v -2.707542 1.188254 13.153068
vt 0.952600 0.950000
v -2.774010 1.989593 13.289049
vt 0.952600 0.860000
v 2.850000 1.208605 13.051158
vt 0.915000 0.950000
v 2.807250 1.994341 13.265270
vt 0.915000 0.860000
v 2.707542 1.188254 13.153068
vt 0.924400 0.950000
v 2.774010 1.989593 13.289049
vt 0.924400 0.860000
v 2.761956 1.170316 13.319836
vt 0.933800 0.950000
v 2.786706 1.985407 13.327962
vt 0.933800 0.860000
v 2.938044 1.179581 13.320995
vt 0.943200 0.950000
v 2.827794 1.987569 13.328232
vt 0.943200 0.860000
v 2.992458 1.203245 13.154942
vt 0.952600 0.950000
v 2.840490 1.993090 13.289487
vt 0.952600 0.860000
v -1.050000 1.207072 13.541752
vt 0.915000 0.950000
v -1.030000 2.184512 13.845292
vt 0.915000 0.860000
v -1.249683 1.192293 13.686158
vt 0.924400 0.950000
v -1.063280 2.182049 13.869360
vt 0.924400 0.860000
v -1.173411 1.160525 13.918791
vt 0.933800 0.950000
v -1.050568 2.176754 13.908132
vt 0.933800 0.860000
v -0.926589 1.155671 13.918160
vt 0.943200 0.950000
v -1.009432 2.175945 13.908027
vt 0.943200 0.860000
v -0.850317 1.184438 13.685137
vt 0.952600 0.950000
v -0.996720 2.180740 13.869190
vt 0.952600 0.860000
v 1.050000 1.207072 13.541752
vt 0.915000 0.950000
v 1.030000 2.184512 13.845292
vt 0.915000 0.860000
v 0.850317 1.184438 13.685137
vt 0.924400 0.950000
v 0.996720 2.180740 13.869190
vt 0.924400 0.860000
v 0.926589 1.155671 13.918160
vt 0.933800 0.950000
v 1.009432 2.175945 13.908027
vt 0.933800 0.860000
v 1.173411 1.160525 13.918791
vt 0.943200 0.950000
v 1.050568 2.176754 13.908132
vt 0.943200 0.860000
v 1.249683 1.192293 13.686158
vt 0.952600 0.950000
v 1.063280 2.182049 13.869360
vt 0.952600 0.860000
v -6.061538 0.150000 1.887692
vt 0.720000 0.520000
v -7.115385 -1.550000 1.036923
vt 0.720000 0.370000
v -6.242812 0.392642 1.497765
vt 0.740000 0.520000
v -7.132649 -1.526891 0.999787
vt 0.740000 0.370000
v -5.950331 0.299961 1.110926
vt 0.760000 0.520000
v -7.104793 -1.535718 0.962945
vt 0.760000 0.370000
v -5.588295 0.000039 1.261775
vt 0.780000 0.520000
v -7.070314 -1.564282 0.977312
vt 0.780000 0.370000
v -5.657025 -0.092642 1.741842
vt 0.800000 0.520000
v -7.076859 -1.573109 1.023033
vt 0.800000 0.370000
v -5.461538 0.150000 4.887692
vt 0.720000 0.520000
v -6.515385 -1.550000 4.036923
vt 0.720000 0.370000
v -5.642812 0.392642 4.497765
vt 0.740000 0.520000
v -6.532649 -1.526891 3.999787
vt 0.740000 0.370000
v -5.350331 0.299961 4.110926
vt 0.760000 0.520000
v -6.504793 -1.535718 3.962945
vt 0.760000 0.370000
v -4.988295 0.000039 4.261775
vt 0.780000 0.520000
v -6.470314 -1.564282 3.977312
vt 0.780000 0.370000
v -5.057025 -0.092642 4.741842
vt 0.800000 0.520000
v -6.476859 -1.573109 4.023033
vt 0.800000 0.370000
v -4.661538 0.150000 8.187692
vt 0.720000 0.520000
v -5.715385 -1.550000 7.336923
vt 0.720000 0.370000
v -4.842812 0.392642 7.797765
vt 0.740000 0.520000
v -5.732649 -1.526891 7.299787
vt 0.740000 0.370000
v -4.550331 0.299961 7.410926
vt 0.760000 0.520000
v -5.704793 -1.535718 7.262945
vt 0.760000 0.370000
v -4.188295 0.000039 7.561775
vt 0.780000 0.520000
v -5.670314 -1.564282 7.277312
vt 0.780000 0.370000
v -4.257025 -0.092642 8.041842
vt 0.800000 0.520000
v -5.676859 -1.573109 7.323033
vt 0.800000 0.370000
v 5.738462 0.150000 1.112308
vt 0.720000 0.520000
v 7.084615 -1.550000 0.963077
vt 0.720000 0.370000
v 6.142975 0.392642 1.258158
vt 0.740000 0.520000
v 7.123141 -1.526891 0.976967
vt 0.740000 0.370000
v 6.211705 0.299961 1.738225
vt 0.760000 0.520000
v 7.129686 -1.535718 1.022688
vt 0.760000 0.370000
v 5.849669 0.000039 1.889074
vt 0.780000 0.520000
v 7.095207 -1.564282 1.037055
vt 0.780000 0.370000
v 5.557188 -0.092642 1.502235
vt 0.800000 0.520000
v 7.067351 -1.573109 1.000213
vt 0.800000 0.370000
v 5.138462 0.150000 4.112308
vt 0.720000 0.520000
v 6.484615 -1.550000 3.963077
vt 0.720000 0.370000
v 5.542975 0.392642 4.258158
vt 0.740000 0.520000
v 6.523141 -1.526891 3.976967
vt 0.740000 0.370000
v 5.611705 0.299961 4.738225
vt 0.760000 0.520000
v 6.529686 -1.535718 4.022688
vt 0.760000 0.370000
v 5.249669 0.000039 4.889074
vt 0.780000 0.520000
v 6.495207 -1.564282 4.037055
vt 0.780000 0.370000
v 4.957188 -0.092642 4.502235
vt 0.800000 0.520000
v 6.467351 -1.573109 4.000213
vt 0.800000 0.370000
v 4.338462 0.150000 7.412308
vt 0.720000 0.520000
v 5.684615 -1.550000 7.263077
vt 0.720000 0.370000
v 4.742975 0.392642 7.558158
vt 0.740000 0.520000
v 5.723141 -1.526891 7.276967
vt 0.740000 0.370000
v 4.811705 0.299961 8.038225
vt 0.760000 0.520000
v 5.729686 -1.535718 7.322688
vt 0.760000 0.370000
v 4.449669 0.000039 8.189074
vt 0.780000 0.520000
v 5.695207 -1.564282 7.337055
vt 0.780000 0.370000
v 4.157188 -0.092642 7.802235
vt 0.800000 0.520000
v 5.667351 -1.573109 7.300213
vt 0.800000 0.370000
f 663/663 664/664 671/671
f 663/663 671/671 670/670
f 664/664 665/665 672/672
f 664/664 672/672 671/671
f 665/665 666/666 673/673
f 665/665 673/673 672/672
f 666/666 667/667 674/674
f 666/666 674/674 673/673
f 667/667 668/668 675/675
f 667/667 675/675 674/674
f 668/668 669/669 676/676
f 668/668 676/676 675/675
f 670/670 671/671 678/678
f 670/670 678/678 677/677
f 671/671 672/672 679/679
f 671/671 679/679 678/678
f 672/672 673/673 680/680
f 672/672 680/680 679/679
f 673/673 674/674 681/681
f 673/673 681/681 680/680
f 674/674 675/675 682/682
f 674/674 682/682 681/681
f 675/675 676/676 683/683
f 675/675 683/683 682/682
f 677/677 678/678 685/685
f 677/677 685/685 684/684
f 678/678 679/679 686/686
f 678/678 686/686 685/685
f 679/679 680/680 687/687
f 679/679 687/687 686/686
f 680/680 681/681 688/688
f 680/680 688/688 687/687
f 681/681 682/682 689/689
f 681/681 689/689 688/688
f 682/682 683/683 690/690
f 682/682 690/690 689/689
f 684/684 685/685 692/692
f 684/684 692/692 691/691
f 685/685 686/686 693/693
f 685/685 693/693 692/692
f 686/686 687/687 694/694
f 686/686 694/694 693/693
f 687/687 688/688 695/695
f 687/687 695/695 694/694
f 688/688 689/689 696/696
f 688/688 696/696 695/695
f 689/689 690/690 697/697
f 689/689 697/697 696/696
f 691/691 692/692 699/699
f 691/691 699/699 698/698
f 692/692 693/693 700/700
f 692/692 700/700 699/699
f 693/693 694/694 701/701
f 693/693 701/701 700/700
f 694/694 695/695 702/702
f 694/694 702/702 701/701
f 695/695 696/696 703/703
f 695/695 703/703 702/702
f 696/696 697/697 704/704
f 696/696 704/704 703/703
f 698/698 699/699 706/706
f 698/698 706/706 705/705
f 699/699 700/700 707/707
f 699/699 707/707 706/706
f 700/700 701/701 708/708
f 700/700 708/708 707/707
f 701/701 702/702 709/709
f 701/701 709/709 708/708
f 702/702 703/703 710/710
f 702/702 710/710 709/709
f 703/703 704/704 711/711
f 703/703 711/711 710/710
f 712/712 663/663 664/664
f 712/712 664/664 665/665
f 712/712 665/665 666/666
f 712/712 666/666 667/667
f 712/712 667/667 668/668
f 712/712 668/668 669/669
f 713/713 705/705 706/706
f 713/713 706/706 707/707
f 713/713 707/707 708/708
f 713/713 708/708 709/709
f 713/713 709/709 710/710
f 713/713 710/710 711/711
f 714/714 715/715 717/717
f 714/714 717/717 716/716
f 716/716 717/717 719/719
f 716/716 719/719 718/718
f 718/718 719/719 721/721
f 718/718 721/721 720/720
f 720/720 721/721 723/723
f 720/720 723/723 722/722
f 724/724 726/726 727/727
f 724/724 727/727 725/725
f 726/726 728/728 729/729
f 726/726 729/729 727/727
f 728/728 730/730 731/731
f 728/728 731/731 729/729
f 730/730 732/732 733/733
f 730/730 733/733 731/731
f 732/732 724/724 725/725
f 732/732 725/725 733/733
f 734/734 736/736 737/737
f 734/734 737/737 735/735
f 736/736 738/738 739/739
f 736/736 739/739 737/737
f 738/738 740/740 741/741
f 738/738 741/741 739/739
f 740/740 742/742 743/743
f 740/740 743/743 741/741
f 742/742 734/734 735/735
f 742/742 735/735 743/743
f 744/744 746/746 747/747
f 744/744 747/747 745/745
f 746/746 748/748 749/749
f 746/746 749/749 747/747
f 748/748 750/750 751/751
f 748/748 751/751 749/749
f 750/750 752/752 753/753
f 750/750 753/753 751/751
f 752/752 744/744 745/745
f 752/752 745/745 753/753
f 754/754 756/756 757/757
f 754/754 757/757 755/755
f 756/756 758/758 759/759
f 756/756 759/759 757/757
f 758/758 760/760 761/761
f 758/758 761/761 759/759
f 760/760 762/762 763/763
f 760/760 763/763 761/761
f 762/762 754/754 755/755
f 762/762 755/755 763/763
f 764/764 766/766 767/767
f 764/764 767/767 765/765
f 766/766 768/768 769/769
f 766/766 769/769 767/767
f 768/768 770/770 771/771
f 768/768 771/771 769/769
f 770/770 772/772 773/773
f 770/770 773/773 771/771
f 772/772 764/764 765/765
f 772/772 765/765 773/773
f 774/774 776/776 777/777
f 774/774 777/777 775/775
f 776/776 778/778 779/779
f 776/776 779/779 777/777
f 778/778 780/780 781/781
f 778/778 781/781 779/779
f 780/780 782/782 783/783
f 780/780 783/783 781/781
f 782/782 774/774 775/775
f 782/782 775/775 783/783
f 784/784 786/786 787/787
f 784/784 787/787 785/785
f 786/786 788/788 789/789
f 786/786 789/789 787/787
f 788/788 790/790 791/791
f 788/788 791/791 789/789
f 790/790 792/792 793/793
f 790/790 793/793 791/791
f 792/792 784/784 785/785
f 792/792 785/785 793/793
f 794/794 796/796 797/797
f 794/794 797/797 795/795
f 796/796 798/798 799/799
f 796/796 799/799 797/797
f 798/798 800/800 801/801
f 798/798 801/801 799/799
f 800/800 802/802 803/803
f 800/800 803/803 801/801
f 802/802 794/794 795/795
f 802/802 795/795 803/803
f 804/804 806/806 807/807
f 804/804 807/807 805/805
f 806/806 808/808 809/809
f 806/806 809/809 807/807
f 808/808 810/810 811/811
f 808/808 811/811 809/809
f 810/810 812/812 813/813
f 810/810 813/813 811/811
f 812/812 804/804 805/805
f 812/812 805/805 813/813
f 814/814 816/816 817/817
f 814/814 817/817 815/815
f 816/816 818/818 819/819
f 816/816 819/819 817/817
f 818/818 820/820 821/821
f 818/818 821/821 819/819
f 820/820 822/822 823/823
f 820/820 823/823 821/821
f 822/822 814/814 815/815
f 822/822 815/815 823/823
f 824/824 826/826 827/827
f 824/824 827/827 825/825
f 826/826 828/828 829/829
f 826/826 829/829 827/827
f 828/828 830/830 831/831
f 828/828 831/831 829/829
f 830/830 832/832 833/833
f 830/830 833/833 831/831
f 832/832 824/824 825/825
f 832/832 825/825 833/833
f 834/834 836/836 837/837
f 834/834 837/837 835/835
f 836/836 838/838 839/839
f 836/836 839/839 837/837
f 838/838 840/840 841/841
f 838/838 841/841 839/839
f 840/840 842/842 843/843
f 840/840 843/843 841/841
f 842/842 834/834 835/835
f 842/842 835/835 843/843
f 844/844 846/846 847/847
f 844/844 847/847 845/845
f 846/846 848/848 849/849
f 846/846 849/849 847/847
f 848/848 850/850 851/851
f 848/848 851/851 849/849
f 850/850 852/852 853/853
f 850/850 853/853 851/851
f 852/852 844/844 845/845
f 852/852 845/845 853/853
f 854/854 856/856 857/857
f 854/854 857/857 855/855
f 856/856 858/858 859/859
f 856/856 859/859 857/857
f 858/858 860/860 861/861
f 858/858 861/861 859/859
f 860/860 862/862 863/863
f 860/860 863/863 861/861
f 862/862 854/854 855/855
f 862/862 855/855 863/863
f 864/864 866/866 867/867
f 864/864 867/867 865/865
f 866/866 868/868 869/869
f 866/866 869/869 867/867
f 868/868 870/870 871/871
f 868/868 871/871 869/869
f 870/870 872/872 873/873
f 870/870 873/873 871/871
f 872/872 864/864 865/865
f 872/872 865/865 873/873
f 874/874 876/876 877/877
f 874/874 877/877 875/875
f 876/876 878/878 879/879
f 876/876 879/879 877/877
f 878/878 880/880 881/881
f 878/878 881/881 879/879
f 880/880 882/882 883/883
f 880/880 883/883 881/881
f 882/882 874/874 875/875
f 882/882 875/875 883/883
f 884/884 886/886 887/887
f 884/884 887/887 885/885
f 886/886 888/888 889/889
f 886/886 889/889 887/887
f 888/888 890/890 891/891
f 888/888 891/891 889/889
f 890/890 892/892 893/893
f 890/890 893/893 891/891
f 892/892 884/884 885/885
f 892/892 885/885 893/893
f 894/894 896/896 897/897
f 894/894 897/897 895/895
f 896/896 898/898 899/899
f 896/896 899/899 897/897
f 898/898 900/900 901/901
f 898/898 901/901 899/899
f 900/900 902/902 903/903
f 900/900 903/903 901/901
f 902/902 894/894 895/895
f 902/902 895/895 903/903
